<svg xmlns="http://www.w3.org/2000/svg" width="180" height="60" viewBox="0 0 180 60">
  <path fill="#fff" d="M64.792,23.8068v4.7476h3.8431c1.3717,0,3.2432-.2348,3.2432-2.3733,0-1.5-.8367-2.3743-3.6449-2.3743ZM34.0891,41.9884V18.1273H53.8382v6.1154H41.442v2.9742h11.26v5.6824H41.442v2.9742H57.4372V18.1288H71.4331c4.177,0,7.7858,2.3064,7.7858,6.8168,0,2.4724-1.1344,5.0805-3.5741,5.9812,1.9994.77,3.24,2.9751,3.5077,5.9494.1,1.1686.1347,4.01.8,5.1122H72.6A17.1577,17.1577,0,0,1,72,38.31c-.2-2.27-.4-4.6436-3.3091-4.6436h-3.91v8.3208H34.09Z"/>
  <path fill="#fff" d="M32.6471,18.1273h-7.25L22.4211,33.0658h-.0659L19.547,18.1273H13.065L10.19,32.8661H10.122L7.2171,18.1273H0L6.481,41.99h7.1839L16.171,27.4527h.0679L18.8123,41.99H25.965Z"/>
  <path fill="#fff" d="M82.0256,41.9881h7.3518V26.5136a5.9553,5.9553,0,0,1-3.704,1.3478A5.6761,5.6761,0,0,1,82.02,26.602l.0059,15.3865Z"/>
  <path fill="#fff" d="M97.1094,41.9884h7.3528V25.5714h6.9321V18.1278H90.3223a6.5773,6.5773,0,0,1,1.3375,3.766,6.3719,6.3719,0,0,1-1.2906,3.6756h6.74v16.419Z"/>
  <path fill="#fff" d="M81.75,21.8709a3.9219,3.9219,0,1,1,3.9226,3.9227A3.9221,3.9221,0,0,1,81.75,21.8709Z"/>
  <path fill="#fff" d="M120.4237,32.1792a3.0922,3.0922,0,1,1,4.3728-.001l-.001.001a3.0912,3.0912,0,0,1-4.3713,0Z"/>
  <path fill="#fff" d="M147.3,5.2771a3.0911,3.0911,0,1,1,4.3713,0l0,0a3.0878,3.0878,0,0,1-4.3674.0034Z"/>
  <path fill="#fff" d="M174.2446,32.16a3.0893,3.0893,0,1,1,.0039.0039Z"/>
  <path fill="#fff" d="M147.3415,59.0933a3.0882,3.0882,0,1,1,.0044.0044Z"/>
  <path fill="#fff" d="M171.5483,31.3315a4.5424,4.5424,0,0,0,1.3116,2.2294,5.0023,5.0023,0,0,0,2.1776,1.2594L154.3434,55.5144a4.9492,4.9492,0,0,0-1.2487-2.1913,4.3364,4.3364,0,0,0-2.24-1.2994L171.5483,31.33Z"/>
  <path fill="#fff" d="M144.7265,4.5305a4.5463,4.5463,0,0,0,1.3116,2.2283,4.9908,4.9908,0,0,0,2.18,1.2609L127.5236,28.7138a4.9463,4.9463,0,0,0-1.2477-2.1893,4.3611,4.3611,0,0,0-2.2435-1.2994L144.7265,4.531Z"/>
  <path fill="#fff" d="M150.86,7.9075a4.5455,4.5455,0,0,0,2.2283-1.3116A4.99,4.99,0,0,0,154.35,4.4164l20.6941,20.6941a4.9528,4.9528,0,0,0-2.19,1.2476,4.3543,4.3543,0,0,0-1.2994,2.2425L150.86,7.9065Z"/>
  <path fill="#fff" d="M124.0185,34.7765a4.5482,4.5482,0,0,0,2.2283-1.31,5,5,0,0,0,1.2609-2.18l20.6941,20.6941a4.9178,4.9178,0,0,0-2.1913,1.2467,4.3536,4.3536,0,0,0-1.2994,2.2425L124.017,34.7765Z"/>
  <path fill="#fff" d="M138.9111,27.7444h-1.8656l-.8348,4.01h-.018l-.7908-4.01h-1.6133l-.81,3.9549h-.0181l-.8186-3.9549h-1.8573l1.7123,6.4083h1.8994l.6609-3.9046h.0181l.68,3.9046h1.89l1.7656-6.4083Z"/>
  <path fill="#fff" d="M138.9111,27.7444h-1.8656l-.8348,4.01h-.018l-.7908-4.01h-1.6133l-.81,3.9549h-.0181l-.8186-3.9549h-1.8573l1.7123,6.4083h1.8994l.6609-3.9046h.0181l.68,3.9046h1.89l1.7656-6.4083Z"/>
  <path fill="#fff" d="M156.012,34.1666h2.5544l.0058-6.4341H156.009v6.4341Z"/>
  <path fill="#fff" d="M156.012,34.1666h2.5544l.0058-6.4341H156.009v6.4341Z"/>
  <path fill="#fff" fill-rule="evenodd" d="M149.368,29.0573V30.33h1.6187c.3871,0,.92-.062.92-.6371,0-.4-.2387-.637-1.0338-.637Zm-2.1624,5.0844V27.7335h4.4987c1.1837,0,2.2083.62,2.2083,1.8314a1.6382,1.6382,0,0,1-1.0158,1.6055,1.7423,1.7423,0,0,1,1,1.6,4,4,0,0,0,.2279,1.3736h-2.0853a4.5121,4.5121,0,0,1-.1708-.9866c-.0581-.61-.1152-1.2476-.9377-1.2476h-1.6368v2.2342Z"/>
  <path fill="#fff" d="M149.368,29.0573V30.33h1.6187c.3871,0,.92-.062.92-.6371,0-.4-.2387-.637-1.0338-.637Zm-2.1624,5.0844V27.7335h4.4987c1.1837,0,2.2083.62,2.2083,1.8314a1.6382,1.6382,0,0,1-1.0158,1.6055,1.7423,1.7423,0,0,1,1,1.6,4,4,0,0,0,.2279,1.3736h-2.0853a4.5121,4.5121,0,0,1-.1708-.9866c-.0581-.61-.1152-1.2476-.9377-1.2476h-1.6368v2.2342Z"/>
  <path fill="#fff" d="M148.1921,41.9743H150.8V35.5831h-2.6082v6.3912Z"/>
  <path fill="#fff" d="M148.1921,41.9743H150.8V35.5831h-2.6082v6.3912Z"/>
  <path fill="#fff" d="M148.1944,49.762h2.6081V45.3375h2.6213V43.33h-7.8449V45.33h2.6174v4.4245Z"/>
  <path fill="#fff" d="M148.1944,49.762h2.6081V45.3375h2.6213V43.33h-7.8449V45.33h2.6174v4.4245Z"/>
  <path fill="#fff" d="M140.1048,34.1583H145.41V32.503h-3.291v-.9h2.8829V30.28h-2.8829v-.9h3.29V27.7374h-5.2982v6.4263Z"/>
  <path fill="#fff" d="M140.1048,34.1583H145.41V32.503h-3.291v-.9h2.8829V30.28h-2.8829v-.9h3.29V27.7374h-5.2982v6.4263Z"/>
  <path fill="#fff" d="M162.878,34.1768h2.6091V29.7523h2.62V27.728h-7.8448v2.0243h2.6145v4.4245Z"/>
  <path fill="#fff" d="M147.1615,26.3077h5.1914v-1.6H149.117v-.8689h2.84V22.5564h-2.84v-.8709H152.35V20.0869h-5.1854v6.2223Z"/>
  <path fill="#fff" d="M147.1615,26.3077h5.1914v-1.6H149.117v-.8689h2.84V22.5564h-2.84v-.8709H152.35V20.0869h-5.1854v6.2223Z"/>
  <path fill="#fff" d="M153.9514,12.4058h-1.83l-.8176,3.931h-.019l-.7747-3.931h-1.5816l-.7917,3.8778h-.0181l-.8-3.8778h-1.82l1.6787,6.2789h1.8593l.65-3.825h.0181l.6668,3.825h1.85l1.7314-6.2789Z"/>
  <path fill="#fff" d="M153.9514,12.4058h-1.83l-.8176,3.931h-.019l-.7747-3.931h-1.5816l-.7917,3.8778h-.0181l-.8-3.8778h-1.82l1.6787,6.2789h1.8593l.65-3.825h.0181l.6668,3.825h1.85l1.7314-6.2789Z"/>
</svg>
